<?xml version="1.0" standalone="no"?>
<!DOCTYPE svg PUBLIC "-//W3C//DTD SVG 20010904//EN"
 "http://www.w3.org/TR/2001/REC-SVG-20010904/DTD/svg10.dtd">
<svg version="1.0" xmlns="http://www.w3.org/2000/svg"
 width="500.000000pt" height="500.000000pt" viewBox="0 0 500.000000 500.000000"
 preserveAspectRatio="xMidYMid meet">
<metadata>
Created by potrace 1.15, written by Peter Selinger 2001-2017
</metadata>
<g transform="translate(0.000000,500.000000) scale(0.100000,-0.100000)"
fill="#000000" stroke="none">
<path d="M0 2500 l0 -2500 2500 0 2500 0 0 2500 0 2500 -2500 0 -2500 0 0
-2500z m2277 2028 c149 -55 270 -206 308 -385 18 -86 18 -130 0 -218 -38 -182
-141 -294 -268 -295 -67 0 -97 15 -278 141 -225 158 -269 218 -277 379 -3 67
1 97 17 143 28 81 81 149 152 196 52 35 84 46 184 64 34 7 108 -5 162 -25z
m668 -734 c334 -200 571 -644 649 -1210 21 -151 39 -434 34 -514 -13 -168
-134 -289 -320 -320 -36 -5 -247 -10 -487 -10 -334 0 -422 -3 -419 -12 3 -7
54 -259 114 -560 104 -523 108 -549 96 -595 -7 -26 -25 -63 -39 -81 -32 -42
-114 -82 -170 -82 -40 0 -42 2 -56 43 -387 1126 -497 1447 -503 1470 -18 76
33 185 106 226 32 18 149 42 533 111 271 48 491 91 490 96 -1 5 -65 137 -141
293 l-140 285 -165 -251 c-90 -137 -175 -257 -188 -267 -32 -22 -83 -30 -117
-18 -26 9 -472 367 -472 379 0 3 19 26 43 53 23 26 56 74 72 106 17 33 31 61
32 63 1 2 64 -32 140 -75 75 -43 140 -80 144 -82 4 -2 17 28 29 65 37 112 108
280 168 398 125 244 272 419 411 488 40 20 79 37 85 37 7 0 39 -16 71 -36z
m-1490 -109 c280 -73 438 -361 345 -630 -68 -198 -250 -328 -460 -328 -367 0
-601 390 -429 714 103 193 337 298 544 244z m2020 -2160 l0 -80 -312 -3 -313
-2 0 78 c0 43 3 82 7 85 4 4 144 6 312 5 l306 -3 0 -80z"/>
<path d="M1282 3520 c-103 -21 -183 -86 -229 -187 -22 -48 -25 -65 -21 -137 5
-93 27 -145 87 -205 118 -118 317 -121 435 -7 66 65 89 116 94 212 4 73 1 88
-22 140 -15 33 -39 72 -54 88 -73 77 -190 116 -290 96z m134 -223 c67 -61 50
-159 -34 -194 -32 -13 -42 -14 -77 -2 -81 28 -109 126 -53 186 49 54 112 58
164 10z"/>
</g>
</svg>
