<?xml version="1.0" encoding="UTF-8"?>
<svg width="44px" height="44px" viewBox="0 0 44 44" version="1.1" xmlns="http://www.w3.org/2000/svg" xmlns:xlink="http://www.w3.org/1999/xlink">
    <!-- Generator: Sketch 48.2 (47327) - http://www.bohemiancoding.com/sketch -->
    <title>icon/baseball</title>
    <desc>Created with Sketch.</desc>
    <defs></defs>
    <g id="Page-1" stroke="none" stroke-width="1" fill="none" fill-rule="evenodd">
        <g id="icon/baseball" fill="#000000" fill-rule="nonzero">
            <g id="baseball-ball">
                <path d="M22,0 C9.86451613,0 0,9.86451613 0,22 C0,34.1354839 9.86451613,44 22,44 C34.1354839,44 44,34.1354839 44,22 C44,9.86451613 34.1354839,0 22,0 Z M9.18145161,36.2024194 C10.6629032,34.658871 11.8959677,32.9024194 12.8451613,30.9596774 L10.4677419,29.8064516 C9.66048387,31.4741935 8.53387097,32.9201613 7.27419355,34.2419355 C-0.319354839,25.1225806 3.25564516,14.5927419 7.27419355,9.75806452 C8.53387097,11.0798387 9.6516129,12.5258065 10.4677419,14.1758065 L12.8451613,13.0137097 C11.9048387,11.0798387 10.6717742,9.33225806 9.19032258,7.78870968 C16.2072581,1.45483871 27.2072581,0.90483871 34.8274194,7.77983871 C33.3459677,9.3233871 32.1129032,11.0709677 31.1725806,13.0137097 L33.55,14.1669355 C34.3572581,12.5080645 35.475,11.0620968 36.7435484,9.73145161 C43.6717742,18.0435484 41.5870968,28.3959677 36.7524194,34.2064516 C35.483871,32.8846774 34.366129,31.4387097 33.558871,29.7798387 L31.1814516,30.9419355 C32.1306452,32.8846774 33.3548387,34.6322581 34.8451613,36.1669355 C26.8612903,43.3967742 15.8346774,42.2169355 9.18145161,36.2024194 Z M13.9008065,28.3427419 L11.3903226,27.5266129 C12.4725806,24.2 12.6322581,20.2967742 11.3814516,16.4645161 L13.8919355,15.6483871 C15.3379032,20.083871 15.133871,24.5548387 13.9008065,28.3427419 Z M32.6185484,27.5266129 L30.1080645,28.3427419 C28.6620968,23.9072581 28.866129,19.4274194 30.0991935,15.6483871 L32.6096774,16.4645161 C31.5274194,19.8 31.3766129,23.7032258 32.6185484,27.5266129 Z" id="Shape"></path>
            </g>
        </g>
    </g>
</svg>